<svg xmlns="http://www.w3.org/2000/svg" viewBox="0 0 960 528" width="100%" role="img" aria-label="Causal SHAP workflow ladder"><g transform="translate(0,12)"><rect x="1" y="1" width="958" height="74" rx="10" fill="#ffffff" stroke="#cbd5e1" stroke-width="1"/><circle cx="42" cy="37.0" r="20" fill="#2563eb"/><text x="42" y="43.0" text-anchor="middle" font-family="Inter,sans-serif" font-size="20" font-weight="700" fill="#ffffff">0</text><text x="82" y="33.0" font-family="Inter,sans-serif" font-size="18" font-weight="700" fill="#111827">Vanilla SHAP</text><text x="82" y="55.0" font-family="Inter,sans-serif" font-size="13" fill="#64748b">The homunculus: proximity bias</text></g><g transform="translate(0,98)"><rect x="1" y="1" width="958" height="74" rx="10" fill="#ffffff" stroke="#cbd5e1" stroke-width="1"/><circle cx="42" cy="37.0" r="20" fill="#2563eb"/><text x="42" y="43.0" text-anchor="middle" font-family="Inter,sans-serif" font-size="20" font-weight="700" fill="#ffffff">1</text><text x="82" y="33.0" font-family="Inter,sans-serif" font-size="18" font-weight="700" fill="#111827">Causal discovery</text><text x="82" y="55.0" font-family="Inter,sans-serif" font-size="13" fill="#64748b">Learn structure; a tool, not an oracle</text></g><g transform="translate(0,184)"><rect x="1" y="1" width="958" height="74" rx="10" fill="#ffffff" stroke="#cbd5e1" stroke-width="1"/><circle cx="42" cy="37.0" r="20" fill="#2563eb"/><text x="42" y="43.0" text-anchor="middle" font-family="Inter,sans-serif" font-size="20" font-weight="700" fill="#ffffff">2</text><text x="82" y="33.0" font-family="Inter,sans-serif" font-size="18" font-weight="700" fill="#111827">Complexity score</text><text x="82" y="55.0" font-family="Inter,sans-serif" font-size="13" fill="#64748b">How much care does this problem need?</text></g><g transform="translate(0,270)"><rect x="1" y="1" width="958" height="74" rx="10" fill="#ffffff" stroke="#cbd5e1" stroke-width="1"/><circle cx="42" cy="37.0" r="20" fill="#2563eb"/><text x="42" y="43.0" text-anchor="middle" font-family="Inter,sans-serif" font-size="20" font-weight="700" fill="#ffffff">3</text><text x="82" y="33.0" font-family="Inter,sans-serif" font-size="18" font-weight="700" fill="#111827">Causal SHAP</text><text x="82" y="55.0" font-family="Inter,sans-serif" font-size="13" fill="#64748b">Propagate do(X=x) through descendants</text></g><g transform="translate(0,356)"><rect x="1" y="1" width="958" height="74" rx="10" fill="#ffffff" stroke="#cbd5e1" stroke-width="1"/><circle cx="42" cy="37.0" r="20" fill="#2563eb"/><text x="42" y="43.0" text-anchor="middle" font-family="Inter,sans-serif" font-size="20" font-weight="700" fill="#ffffff">4</text><text x="82" y="33.0" font-family="Inter,sans-serif" font-size="18" font-weight="700" fill="#111827">Simulation validation</text><text x="82" y="55.0" font-family="Inter,sans-serif" font-size="13" fill="#64748b">Credence-style layered truth</text></g><g transform="translate(0,442)"><rect x="1" y="1" width="958" height="74" rx="10" fill="#ffffff" stroke="#cbd5e1" stroke-width="1"/><circle cx="42" cy="37.0" r="20" fill="#2563eb"/><text x="42" y="43.0" text-anchor="middle" font-family="Inter,sans-serif" font-size="20" font-weight="700" fill="#ffffff">5</text><text x="82" y="33.0" font-family="Inter,sans-serif" font-size="18" font-weight="700" fill="#111827">Thoughtful iteration</text><text x="82" y="55.0" font-family="Inter,sans-serif" font-size="13" fill="#64748b">Refine the DAG; report uncertainty</text></g></svg>